<mxfile host="app.diagrams.net" modified="2021-07-28T09:01:28.325Z" agent="5.0 (Macintosh; Intel Mac OS X 10_15_7) AppleWebKit/537.36 (KHTML, like Gecko) Chrome/91.0.4472.114 Safari/537.36" etag="s4gIsNlTlguc5IIONATQ" version="13.8.7" type="github">
  <diagram id="bdmOIcWWtCbbZjYAtdO1" name="Page-1">
    <mxGraphModel dx="2013" dy="1858" grid="1" gridSize="10" guides="1" tooltips="1" connect="1" arrows="1" fold="1" page="1" pageScale="1" pageWidth="827" pageHeight="1169" math="0" shadow="0">
      <root>
        <mxCell id="0" />
        <mxCell id="1" parent="0" />
        <mxCell id="0t69Bi4YH2usCsVSUyQo-19" value="" style="rounded=0;whiteSpace=wrap;html=1;gradientColor=#ffffff;" vertex="1" parent="1">
          <mxGeometry x="-60" y="-640" width="900" height="240" as="geometry" />
        </mxCell>
        <mxCell id="0t69Bi4YH2usCsVSUyQo-10" style="edgeStyle=none;rounded=0;orthogonalLoop=1;jettySize=auto;html=1;" edge="1" parent="1" source="0t69Bi4YH2usCsVSUyQo-1" target="0t69Bi4YH2usCsVSUyQo-3">
          <mxGeometry relative="1" as="geometry" />
        </mxCell>
        <mxCell id="0t69Bi4YH2usCsVSUyQo-24" value="编译" style="edgeLabel;html=1;align=center;verticalAlign=middle;resizable=0;points=[];" vertex="1" connectable="0" parent="0t69Bi4YH2usCsVSUyQo-10">
          <mxGeometry y="2" relative="1" as="geometry">
            <mxPoint as="offset" />
          </mxGeometry>
        </mxCell>
        <mxCell id="0t69Bi4YH2usCsVSUyQo-12" style="edgeStyle=none;rounded=0;orthogonalLoop=1;jettySize=auto;html=1;exitX=0.5;exitY=1;exitDx=0;exitDy=0;entryX=0.5;entryY=0;entryDx=0;entryDy=0;" edge="1" parent="1" source="0t69Bi4YH2usCsVSUyQo-1" target="0t69Bi4YH2usCsVSUyQo-5">
          <mxGeometry relative="1" as="geometry" />
        </mxCell>
        <mxCell id="0t69Bi4YH2usCsVSUyQo-25" value="编译" style="edgeLabel;html=1;align=center;verticalAlign=middle;resizable=0;points=[];" vertex="1" connectable="0" parent="0t69Bi4YH2usCsVSUyQo-12">
          <mxGeometry x="-0.0051" y="1" relative="1" as="geometry">
            <mxPoint as="offset" />
          </mxGeometry>
        </mxCell>
        <mxCell id="0t69Bi4YH2usCsVSUyQo-13" style="edgeStyle=none;rounded=0;orthogonalLoop=1;jettySize=auto;html=1;exitX=1;exitY=1;exitDx=0;exitDy=0;entryX=0.5;entryY=0;entryDx=0;entryDy=0;" edge="1" parent="1" source="0t69Bi4YH2usCsVSUyQo-1" target="0t69Bi4YH2usCsVSUyQo-6">
          <mxGeometry relative="1" as="geometry" />
        </mxCell>
        <mxCell id="0t69Bi4YH2usCsVSUyQo-26" value="编译" style="edgeLabel;html=1;align=center;verticalAlign=middle;resizable=0;points=[];" vertex="1" connectable="0" parent="0t69Bi4YH2usCsVSUyQo-13">
          <mxGeometry x="-0.2461" y="-2" relative="1" as="geometry">
            <mxPoint as="offset" />
          </mxGeometry>
        </mxCell>
        <mxCell id="0t69Bi4YH2usCsVSUyQo-1" value="uni-app/Taro" style="rounded=1;whiteSpace=wrap;html=1;fillColor=#dae8fc;strokeColor=#6c8ebf;" vertex="1" parent="1">
          <mxGeometry x="390" y="-620" width="120" height="60" as="geometry" />
        </mxCell>
        <mxCell id="0t69Bi4YH2usCsVSUyQo-2" value="小程序" style="rounded=1;whiteSpace=wrap;html=1;fillColor=#d5e8d4;strokeColor=#82b366;" vertex="1" parent="1">
          <mxGeometry x="70" y="-490" width="120" height="60" as="geometry" />
        </mxCell>
        <mxCell id="0t69Bi4YH2usCsVSUyQo-3" value="Android" style="rounded=1;whiteSpace=wrap;html=1;fillColor=#dae8fc;strokeColor=#6c8ebf;" vertex="1" parent="1">
          <mxGeometry x="390" y="-490" width="120" height="60" as="geometry" />
        </mxCell>
        <mxCell id="0t69Bi4YH2usCsVSUyQo-4" value="IOS" style="rounded=1;whiteSpace=wrap;html=1;fillColor=#dae8fc;strokeColor=#6c8ebf;" vertex="1" parent="1">
          <mxGeometry x="230" y="-490" width="120" height="60" as="geometry" />
        </mxCell>
        <mxCell id="0t69Bi4YH2usCsVSUyQo-5" value="H5" style="rounded=1;whiteSpace=wrap;html=1;fillColor=#dae8fc;strokeColor=#6c8ebf;" vertex="1" parent="1">
          <mxGeometry x="540" y="-490" width="120" height="60" as="geometry" />
        </mxCell>
        <mxCell id="0t69Bi4YH2usCsVSUyQo-6" value="其他端" style="rounded=1;whiteSpace=wrap;html=1;fillColor=#dae8fc;strokeColor=#6c8ebf;" vertex="1" parent="1">
          <mxGeometry x="690" y="-490" width="120" height="60" as="geometry" />
        </mxCell>
        <mxCell id="0t69Bi4YH2usCsVSUyQo-14" value="跨端跨平台框架:" style="text;html=1;align=center;verticalAlign=middle;resizable=0;points=[];autosize=1;" vertex="1" parent="1">
          <mxGeometry x="-40" y="-594" width="100" height="20" as="geometry" />
        </mxCell>
        <mxCell id="0t69Bi4YH2usCsVSUyQo-15" value="原生框架：" style="text;html=1;align=center;verticalAlign=middle;resizable=0;points=[];autosize=1;" vertex="1" parent="1">
          <mxGeometry x="-40" y="-470" width="80" height="20" as="geometry" />
        </mxCell>
        <mxCell id="0t69Bi4YH2usCsVSUyQo-16" value="" style="shape=flexArrow;endArrow=classic;html=1;fillColor=#d5e8d4;strokeColor=#82b366;" edge="1" parent="1">
          <mxGeometry width="50" height="50" relative="1" as="geometry">
            <mxPoint x="190" y="-526" as="sourcePoint" />
            <mxPoint x="300" y="-560" as="targetPoint" />
          </mxGeometry>
        </mxCell>
        <mxCell id="0t69Bi4YH2usCsVSUyQo-18" value="迁移方向" style="edgeLabel;html=1;align=center;verticalAlign=middle;resizable=0;points=[];" vertex="1" connectable="0" parent="0t69Bi4YH2usCsVSUyQo-16">
          <mxGeometry x="0.06" y="1" relative="1" as="geometry">
            <mxPoint as="offset" />
          </mxGeometry>
        </mxCell>
        <mxCell id="0t69Bi4YH2usCsVSUyQo-8" style="rounded=0;orthogonalLoop=1;jettySize=auto;html=1;exitX=0;exitY=1;exitDx=0;exitDy=0;entryX=0.5;entryY=0;entryDx=0;entryDy=0;" edge="1" parent="1" source="0t69Bi4YH2usCsVSUyQo-1" target="0t69Bi4YH2usCsVSUyQo-2">
          <mxGeometry relative="1" as="geometry" />
        </mxCell>
        <mxCell id="0t69Bi4YH2usCsVSUyQo-22" value="编译" style="edgeLabel;html=1;align=center;verticalAlign=middle;resizable=0;points=[];" vertex="1" connectable="0" parent="0t69Bi4YH2usCsVSUyQo-8">
          <mxGeometry x="-0.0019" y="-1" relative="1" as="geometry">
            <mxPoint as="offset" />
          </mxGeometry>
        </mxCell>
        <mxCell id="0t69Bi4YH2usCsVSUyQo-9" style="edgeStyle=none;rounded=0;orthogonalLoop=1;jettySize=auto;html=1;exitX=0.5;exitY=1;exitDx=0;exitDy=0;entryX=0.5;entryY=0;entryDx=0;entryDy=0;" edge="1" parent="1" source="0t69Bi4YH2usCsVSUyQo-1" target="0t69Bi4YH2usCsVSUyQo-4">
          <mxGeometry relative="1" as="geometry" />
        </mxCell>
        <mxCell id="0t69Bi4YH2usCsVSUyQo-23" value="编译" style="edgeLabel;html=1;align=center;verticalAlign=middle;resizable=0;points=[];" vertex="1" connectable="0" parent="0t69Bi4YH2usCsVSUyQo-9">
          <mxGeometry x="0.1325" y="1" relative="1" as="geometry">
            <mxPoint as="offset" />
          </mxGeometry>
        </mxCell>
      </root>
    </mxGraphModel>
  </diagram>
</mxfile>
